<?xml version="1.0" encoding="utf-8"?>
<svg viewBox="0 0 311.341 325.251" width="311.341" height="325.251" xmlns="http://www.w3.org/2000/svg">
  <g transform="matrix(0.10000000149011612, 0, 0, -0.10000000149011612, -88.66046142578125, 449.1856994628906)" fill="#000000" stroke="none">
    <path d="M3454 4130 c-11 -4 -32 -23 -46 -42 -29 -38 -133 -110 -223 -155 -33 -17 -168 -71 -300 -121 -404 -152 -428 -162 -495 -199 -88 -47 -152 -97 -233 -179 -283 -286 -366 -736 -205 -1109 46 -106 148 -253 229 -329 410 -387 1053 -376 1435 26 85 90 118 137 173 245 200 399 114 879 -212 1191 l-66 63 25 49 c30 61 54 165 54 242 0 86 -47 276 -76 305 -25 25 -29 26 -60 13z m2 -225 c3 -20 4 -75 2 -123 -6 -136 -56 -229 -167 -311 -72 -54 -158 -86 -309 -116 -70 -14 -156 -35 -192 -46 -295 -96 -505 -328 -555 -614 -18 -102 -19 -156 -5 -245 22 -135 71 -248 156 -360 54 -71 106 -118 191 -172 94 -59 58 -61 -59 -2 -125 63 -190 109 -269 191 -86 88 -138 167 -187 284 -55 128 -66 191 -66 344 1 160 22 247 94 390 61 123 131 210 237 295 106 85 152 107 507 239 290 109 464 187 556 250 25 17 48 31 52 31 4 0 10 -16 14 -35z m55 -562 c88 -90 126 -144 174 -246 196 -413 34 -922 -365 -1145 -108 -60 -180 -77 -330 -77 -120 1 -144 4 -216 28 -147 49 -281 155 -369 292 -57 90 -73 132 -91 245 -21 135 -15 242 20 340 33 92 47 108 34 38 -14 -76 -5 -203 21 -273 42 -118 148 -242 252 -296 56 -28 178 -59 235 -59 81 0 214 29 269 58 27 15 80 56 118 91 167 157 213 407 113 618 -48 101 -145 198 -245 245 -39 18 -71 35 -71 38 0 3 32 13 71 22 84 20 199 76 254 123 22 19 42 34 45 35 3 0 40 -35 81 -77z m-482 -182 c122 -38 228 -131 284 -249 30 -64 32 -73 32 -187 0 -118 -1 -121 -37 -198 -67 -140 -191 -233 -346 -258 -149 -25 -284 23 -408 145 -65 64 -74 78 -92 141 -31 104 -35 171 -18 255 18 87 44 142 91 198 42 48 156 127 223 153 64 25 191 25 271 0z" style="fill: rgb(31, 158, 236);"/>
  </g>
</svg>